# xmcd
#
# Track frame offsets:
#	150
#	17557
#	30373
#	42975
#	60568
#	76988
#	95958
#	110253
#	128488
#	141644
#
# Disc length: 2168 seconds
#
# Revision: 1
# Processed by: cddbd v1.5.2PL0 Copyright (c) Steve Scherf et al.
# Submitted via: audiograbber 1.83.01
#
DISCID=7e08760a
DTITLE=Victor Branch - Introspective
DYEAR=2016
DGENRE=Soul
TTITLE0=Soul
TTITLE1=Smile
TTITLE2=Life is wonderful
TTITLE3=Survive
TTITLE4=Somebody to love
TTITLE5=Good boy
TTITLE6=Carmen
TTITLE7=You are your all
TTITLE8=Love is a monkey
TTITLE9=I want to live
EXTD=
EXTT0=
EXTT1=
EXTT2=
EXTT3=
EXTT4=
EXTT5=
EXTT6=
EXTT7=
EXTT8=
EXTT9=
PLAYORDER=
